<svg width="109" height="42" viewBox="0 0 109 42" fill="none" xmlns="http://www.w3.org/2000/svg">
<path d="M4.7168 32.5176L4.99023 34.3926L5.39062 32.7032L8.20312 22.7813H9.78516L12.5293 32.7032L12.9199 34.4219L13.2227 32.5079L15.4297 22.7813H17.3145L13.8672 37.0001H12.1582L9.22852 26.6387L9.00391 25.5547L8.7793 26.6387L5.74219 37.0001H4.0332L0.595703 22.7813H2.4707L4.7168 32.5176Z" fill="white"/>
<path d="M23.1934 37.1954C21.7611 37.1954 20.5957 36.7266 19.6973 35.7891C18.7988 34.8451 18.3496 33.5853 18.3496 32.0098V31.6778C18.3496 30.6296 18.5482 29.6954 18.9453 28.8751C19.349 28.0482 19.9089 27.4037 20.625 26.9415C21.3477 26.4727 22.1289 26.2383 22.9688 26.2383C24.3424 26.2383 25.4102 26.6908 26.1719 27.5958C26.9336 28.5007 27.3145 29.7963 27.3145 31.4825V32.2344H20.1562C20.1823 33.2761 20.485 34.1192 21.0645 34.7637C21.6504 35.4018 22.3926 35.7208 23.291 35.7208C23.929 35.7208 24.4694 35.5906 24.9121 35.3301C25.3548 35.0697 25.7422 34.7247 26.0742 34.295L27.1777 35.1544C26.2923 36.515 24.9642 37.1954 23.1934 37.1954ZM22.9688 27.7227C22.2396 27.7227 21.6276 27.9896 21.1328 28.5235C20.638 29.0508 20.332 29.793 20.2148 30.7501H25.5078V30.6133C25.4557 29.6954 25.2083 28.9857 24.7656 28.4844C24.3229 27.9766 23.724 27.7227 22.9688 27.7227Z" fill="white"/>
<path d="M35.9375 37.0001C35.8333 36.7917 35.7487 36.4206 35.6836 35.8868C34.8438 36.7592 33.8411 37.1954 32.6758 37.1954C31.6341 37.1954 30.778 36.9024 30.1074 36.3165C29.4434 35.724 29.1113 34.9753 29.1113 34.0704C29.1113 32.9701 29.528 32.1172 30.3613 31.5118C31.2012 30.8998 32.3796 30.5938 33.8965 30.5938H35.6543V29.7637C35.6543 29.1322 35.4655 28.6309 35.0879 28.2598C34.7103 27.8822 34.1536 27.6934 33.418 27.6934C32.7734 27.6934 32.2331 27.8562 31.7969 28.1817C31.3607 28.5072 31.1426 28.9011 31.1426 29.3633H29.3262C29.3262 28.836 29.5117 28.3282 29.8828 27.8399C30.2604 27.3451 30.7682 26.9545 31.4062 26.668C32.0508 26.3816 32.7572 26.2383 33.5254 26.2383C34.7428 26.2383 35.6966 26.5443 36.3867 27.1563C37.0768 27.7618 37.4349 28.5984 37.4609 29.6661V34.5294C37.4609 35.4994 37.5846 36.2709 37.832 36.8438V37.0001H35.9375ZM32.9395 35.6231C33.5059 35.6231 34.043 35.4766 34.5508 35.1837C35.0586 34.8907 35.4264 34.5098 35.6543 34.0411V31.8731H34.2383C32.0247 31.8731 30.918 32.5209 30.918 33.8165C30.918 34.3829 31.1068 34.8256 31.4844 35.1446C31.862 35.4636 32.347 35.6231 32.9395 35.6231Z" fill="white"/>
<path d="M42.7441 23.8751V26.4337H44.7168V27.8301H42.7441V34.3829C42.7441 34.8061 42.832 35.1251 43.0078 35.3399C43.1836 35.5482 43.4831 35.6524 43.9062 35.6524C44.1146 35.6524 44.401 35.6133 44.7656 35.5352V37.0001C44.2904 37.1303 43.8281 37.1954 43.3789 37.1954C42.5716 37.1954 41.9629 36.9512 41.5527 36.463C41.1426 35.9747 40.9375 35.2813 40.9375 34.3829V27.8301H39.0137V26.4337H40.9375V23.8751H42.7441Z" fill="white"/>
<path d="M48.6426 27.713C49.4434 26.7299 50.485 26.2383 51.7676 26.2383C54.0007 26.2383 55.127 27.4981 55.1465 30.0176V37.0001H53.3398V30.0079C53.3333 29.2462 53.1576 28.683 52.8125 28.3184C52.474 27.9538 51.9434 27.7715 51.2207 27.7715C50.6348 27.7715 50.1204 27.9278 49.6777 28.2403C49.235 28.5528 48.89 28.963 48.6426 29.4708V37.0001H46.8359V22.0001H48.6426V27.713Z" fill="white"/>
<path d="M62.2363 37.1954C60.804 37.1954 59.6387 36.7266 58.7402 35.7891C57.8418 34.8451 57.3926 33.5853 57.3926 32.0098V31.6778C57.3926 30.6296 57.5911 29.6954 57.9883 28.8751C58.3919 28.0482 58.9518 27.4037 59.668 26.9415C60.3906 26.4727 61.1719 26.2383 62.0117 26.2383C63.3854 26.2383 64.4531 26.6908 65.2148 27.5958C65.9766 28.5007 66.3574 29.7963 66.3574 31.4825V32.2344H59.1992C59.2253 33.2761 59.528 34.1192 60.1074 34.7637C60.6934 35.4018 61.4355 35.7208 62.334 35.7208C62.972 35.7208 63.5124 35.5906 63.9551 35.3301C64.3978 35.0697 64.7852 34.7247 65.1172 34.295L66.2207 35.1544C65.3353 36.515 64.0072 37.1954 62.2363 37.1954ZM62.0117 27.7227C61.2826 27.7227 60.6706 27.9896 60.1758 28.5235C59.681 29.0508 59.375 29.793 59.2578 30.7501H64.5508V30.6133C64.4987 29.6954 64.2513 28.9857 63.8086 28.4844C63.3659 27.9766 62.7669 27.7227 62.0117 27.7227Z" fill="white"/>
<path d="M73.5645 28.0547C73.291 28.0092 72.9948 27.9864 72.6758 27.9864C71.4909 27.9864 70.6868 28.4909 70.2637 29.5001V37.0001H68.457V26.4337H70.2148L70.2441 27.6544C70.8366 26.7103 71.6764 26.2383 72.7637 26.2383C73.1152 26.2383 73.3822 26.2839 73.5645 26.3751V28.0547Z" fill="white"/>
<path d="M83.3691 33.2891H77.4121L76.0742 37.0001H74.1406L79.5703 22.7813H81.2109L86.6504 37.0001H84.7266L83.3691 33.2891ZM77.9785 31.7462H82.8125L80.3906 25.0958L77.9785 31.7462Z" fill="white"/>
<path d="M97.207 31.834C97.207 33.4421 96.8392 34.7377 96.1035 35.7208C95.3678 36.7038 94.3717 37.1954 93.1152 37.1954C91.8327 37.1954 90.8236 36.7885 90.0879 35.9747V41.0626H88.2812V26.4337H89.9316L90.0195 27.6055C90.7552 26.6941 91.7773 26.2383 93.0859 26.2383C94.3555 26.2383 95.3581 26.7169 96.0938 27.6739C96.8359 28.6309 97.207 29.9623 97.207 31.668V31.834ZM95.4004 31.629C95.4004 30.4376 95.1465 29.4968 94.6387 28.8067C94.1309 28.1166 93.4342 27.7715 92.5488 27.7715C91.4551 27.7715 90.6348 28.2566 90.0879 29.2266V34.2755C90.6283 35.239 91.4551 35.7208 92.5684 35.7208C93.4342 35.7208 94.1211 35.379 94.6289 34.6954C95.1432 34.0053 95.4004 32.9831 95.4004 31.629Z" fill="white"/>
<path d="M108.438 31.834C108.438 33.4421 108.07 34.7377 107.334 35.7208C106.598 36.7038 105.602 37.1954 104.346 37.1954C103.063 37.1954 102.054 36.7885 101.318 35.9747V41.0626H99.5117V26.4337H101.162L101.25 27.6055C101.986 26.6941 103.008 26.2383 104.316 26.2383C105.586 26.2383 106.589 26.7169 107.324 27.6739C108.066 28.6309 108.438 29.9623 108.438 31.668V31.834ZM106.631 31.629C106.631 30.4376 106.377 29.4968 105.869 28.8067C105.361 28.1166 104.665 27.7715 103.779 27.7715C102.686 27.7715 101.865 28.2566 101.318 29.2266V34.2755C101.859 35.239 102.686 35.7208 103.799 35.7208C104.665 35.7208 105.352 35.379 105.859 34.6954C106.374 34.0053 106.631 32.9831 106.631 31.629Z" fill="white"/>
<path d="M55.5 6.10352e-05C55.7901 6.10352e-05 56.0683 0.115295 56.2734 0.320413C56.4785 0.525531 56.5938 0.80373 56.5938 1.09381V5.46881C56.5938 5.75889 56.4785 6.03709 56.2734 6.24221C56.0683 6.44733 55.7901 6.56256 55.5 6.56256C55.2099 6.56256 54.9317 6.44733 54.7266 6.24221C54.5215 6.03709 54.4062 5.75889 54.4062 5.46881V1.09381C54.4062 0.80373 54.5215 0.525531 54.7266 0.320413C54.9317 0.115295 55.2099 6.10352e-05 55.5 6.10352e-05ZM73 17.5001C73 17.7901 72.8848 18.0683 72.6796 18.2735C72.4745 18.4786 72.1963 18.5938 71.9062 18.5938H67.5312C67.2412 18.5938 66.963 18.4786 66.7579 18.2735C66.5527 18.0683 66.4375 17.7901 66.4375 17.5001C66.4375 17.21 66.5527 16.9318 66.7579 16.7267C66.963 16.5215 67.2412 16.4063 67.5312 16.4063H71.9062C72.1963 16.4063 72.4745 16.5215 72.6796 16.7267C72.8848 16.9318 73 17.21 73 17.5001ZM43.4688 18.5938C43.7588 18.5938 44.037 18.4786 44.2421 18.2735C44.4473 18.0683 44.5625 17.7901 44.5625 17.5001C44.5625 17.21 44.4473 16.9318 44.2421 16.7267C44.037 16.5215 43.7588 16.4063 43.4688 16.4063H39.0938C38.8037 16.4063 38.5255 16.5215 38.3204 16.7267C38.1152 16.9318 38 17.21 38 17.5001C38 17.7901 38.1152 18.0683 38.3204 18.2735C38.5255 18.4786 38.8037 18.5938 39.0938 18.5938H43.4688ZM67.8747 5.12537C68.0797 5.33048 68.1949 5.60863 68.1949 5.89865C68.1949 6.18868 68.0797 6.46683 67.8747 6.67194L64.7816 9.76506C64.6807 9.86953 64.56 9.95285 64.4265 10.0102C64.2931 10.0675 64.1496 10.0977 64.0043 10.0989C63.8591 10.1002 63.7151 10.0725 63.5807 10.0175C63.4463 9.96253 63.3241 9.88131 63.2214 9.77862C63.1187 9.67592 63.0375 9.5538 62.9825 9.41939C62.9275 9.28497 62.8999 9.14094 62.9011 8.99572C62.9024 8.85049 62.9326 8.70697 62.9899 8.57352C63.0472 8.44008 63.1305 8.31939 63.235 8.2185L66.3281 5.12537C66.5332 4.92033 66.8114 4.80514 67.1014 4.80514C67.3914 4.80514 67.6696 4.92033 67.8747 5.12537ZM46.2184 9.76506C46.4247 9.9643 46.701 10.0745 46.9878 10.072C47.2746 10.0696 47.5489 9.95453 47.7517 9.75174C47.9545 9.54895 48.0695 9.27462 48.072 8.98784C48.0745 8.70107 47.9642 8.42478 47.765 8.2185L44.6719 5.12537C44.571 5.02091 44.4503 4.93759 44.3168 4.88026C44.1834 4.82294 44.0399 4.79277 43.8947 4.79151C43.7494 4.79024 43.6054 4.81792 43.471 4.87291C43.3366 4.92791 43.2145 5.00912 43.1118 5.11182C43.0091 5.21451 42.9278 5.33663 42.8729 5.47105C42.8179 5.60547 42.7902 5.74949 42.7914 5.89472C42.7927 6.03995 42.8229 6.18347 42.8802 6.31691C42.9375 6.45035 43.0208 6.57104 43.1253 6.67194L46.2184 9.76506ZM55.5 8.75006C53.1794 8.75006 50.9538 9.67193 49.3128 11.3129C47.6719 12.9538 46.75 15.1794 46.75 17.5001C46.75 17.7901 46.8652 18.0683 47.0704 18.2735C47.2755 18.4786 47.5537 18.5938 47.8438 18.5938H63.1562C63.4463 18.5938 63.7245 18.4786 63.9296 18.2735C64.1348 18.0683 64.25 17.7901 64.25 17.5001C64.25 15.1794 63.3281 12.9538 61.6872 11.3129C60.0462 9.67193 57.8206 8.75006 55.5 8.75006ZM55.5 10.9376C57.0512 10.9371 58.5525 11.4861 59.7374 12.4872C60.9223 13.4883 61.7143 14.8768 61.9728 16.4063H49.025C49.2836 14.8764 50.0759 13.4876 51.2613 12.4865C52.4466 11.4853 53.9484 10.9365 55.5 10.9376Z" fill="#EB6F4C"/>
</svg>
