<svg width="18" height="18" viewBox="0 0 18 18" fill="none" xmlns="http://www.w3.org/2000/svg">
<path d="M13.2103 11.6362C14.2996 10.1495 14.7874 8.30639 14.5763 6.47544C14.3652 4.64449 13.4706 2.96079 12.0715 1.76118C10.6725 0.561571 8.87214 -0.0654759 7.03069 0.00548869C5.18923 0.0764533 3.44246 0.840196 2.13986 2.14392C0.837249 3.44764 0.0748641 5.1952 0.00522715 7.03697C-0.0644098 8.87873 0.563837 10.6789 1.76428 12.0773C2.96472 13.4757 4.64882 14.3692 6.47966 14.579C8.3105 14.7889 10.1531 14.2996 11.6387 13.2091H11.6376C11.6713 13.2541 11.7073 13.2968 11.7478 13.3385L16.0789 17.6702C16.2898 17.8813 16.576 18 16.8744 18.0001C17.1728 18.0002 17.4591 17.8817 17.6702 17.6707C17.8812 17.4598 17.9999 17.1736 18 16.8751C18.0001 16.5767 17.8817 16.2904 17.6707 16.0793L13.3396 11.7476C13.2994 11.7068 13.2562 11.6692 13.2103 11.6351V11.6362ZM13.5005 7.31123C13.5005 8.12387 13.3405 8.92855 13.0295 9.67933C12.7186 10.4301 12.2628 11.1123 11.6883 11.6869C11.1138 12.2615 10.4317 12.7173 9.681 13.0283C8.93033 13.3393 8.12576 13.4994 7.31324 13.4994C6.50071 13.4994 5.69615 13.3393 4.94547 13.0283C4.1948 12.7173 3.51272 12.2615 2.93818 11.6869C2.36364 11.1123 1.90788 10.4301 1.59695 9.67933C1.28601 8.92855 1.12597 8.12387 1.12597 7.31123C1.12597 5.67003 1.77784 4.09606 2.93818 2.93556C4.09851 1.77506 5.67227 1.12309 7.31324 1.12309C8.9542 1.12309 10.528 1.77506 11.6883 2.93556C12.8486 4.09606 13.5005 5.67003 13.5005 7.31123Z" fill="white"/>
</svg>
